<svg width="548" height="160" viewBox="0 0 548 160" fill="none" xmlns="http://www.w3.org/2000/svg">
<path d="M189.5 104.5L206 85L251.5 138H217.5L189.5 104.5Z" fill="url(#paint0_linear_64_167)"/>
<path d="M123 25H154.5L185 60.5L168.5 79.5L123 25Z" fill="url(#paint1_linear_64_167)"/>
<mask id="path-3-outside-1_64_167" maskUnits="userSpaceOnUse" x="8" y="48" width="133" height="71" fill="black">
<rect fill="white" x="8" y="48" width="133" height="71"/>
<path d="M10.24 117V50.44H46.08C58.88 50.44 65.28 56.84 65.28 69.64V117H55.04V68.36C55.04 62.3867 52.0533 59.4 46.08 59.4H20.48V117H10.24ZM84.216 97.8V69.64C84.216 56.84 90.616 50.44 103.416 50.44H120.056C132.856 50.44 139.256 56.84 139.256 69.64V87.688H94.456V99.08C94.456 105.053 97.4427 108.04 103.416 108.04H136.696V113.16L131.576 117H103.416C90.616 117 84.216 110.6 84.216 97.8ZM94.456 79.368H129.016V68.36C129.016 62.3867 126.029 59.4 120.056 59.4H103.416C97.4427 59.4 94.456 62.3867 94.456 68.36V79.368Z"/>
</mask>
<path d="M10.24 117V50.44H46.08C58.88 50.44 65.28 56.84 65.28 69.64V117H55.04V68.36C55.04 62.3867 52.0533 59.4 46.08 59.4H20.48V117H10.24ZM84.216 97.8V69.64C84.216 56.84 90.616 50.44 103.416 50.44H120.056C132.856 50.44 139.256 56.84 139.256 69.64V87.688H94.456V99.08C94.456 105.053 97.4427 108.04 103.416 108.04H136.696V113.16L131.576 117H103.416C90.616 117 84.216 110.6 84.216 97.8ZM94.456 79.368H129.016V68.36C129.016 62.3867 126.029 59.4 120.056 59.4H103.416C97.4427 59.4 94.456 62.3867 94.456 68.36V79.368Z" fill="url(#paint2_linear_64_167)"/>
<path d="M10.24 117H8.74V118.5H10.24V117ZM10.24 50.44V48.94H8.74V50.44H10.24ZM65.28 117V118.5H66.78V117H65.28ZM55.04 117H53.54V118.5H55.04V117ZM20.48 59.4V57.9H18.98V59.4H20.48ZM20.48 117V118.5H21.98V117H20.48ZM10.24 117H11.74V50.44H10.24H8.74V117H10.24ZM10.24 50.44V51.94H46.08V50.44V48.94H10.24V50.44ZM46.08 50.44V51.94C52.2488 51.94 56.5999 53.4812 59.4193 56.3007C62.2388 59.1201 63.78 63.4712 63.78 69.64H65.28H66.78C66.78 63.0088 65.1212 57.7599 61.5407 54.1793C57.9601 50.5988 52.7112 48.94 46.08 48.94V50.44ZM65.28 69.64H63.78V117H65.28H66.78V69.64H65.28ZM65.28 117V115.5H55.04V117V118.5H65.28V117ZM55.04 117H56.54V68.36H55.04H53.54V117H55.04ZM55.04 68.36H56.54C56.54 65.1421 55.7345 62.4532 53.8607 60.5793C51.9868 58.7055 49.2979 57.9 46.08 57.9V59.4V60.9C48.8354 60.9 50.6265 61.5878 51.7393 62.7007C52.8522 63.8135 53.54 65.6045 53.54 68.36H55.04ZM46.08 59.4V57.9H20.48V59.4V60.9H46.08V59.4ZM20.48 59.4H18.98V117H20.48H21.98V59.4H20.48ZM20.48 117V115.5H10.24V117V118.5H20.48V117ZM139.256 87.688V89.188H140.756V87.688H139.256ZM94.456 87.688V86.188H92.956V87.688H94.456ZM136.696 108.04H138.196V106.54H136.696V108.04ZM136.696 113.16L137.596 114.36L138.196 113.91V113.16H136.696ZM131.576 117V118.5H132.076L132.476 118.2L131.576 117ZM94.456 79.368H92.956V80.868H94.456V79.368ZM129.016 79.368V80.868H130.516V79.368H129.016ZM84.216 97.8H85.716V69.64H84.216H82.716V97.8H84.216ZM84.216 69.64H85.716C85.716 63.4712 87.2572 59.1201 90.0767 56.3007C92.8961 53.4812 97.2472 51.94 103.416 51.94V50.44V48.94C96.7848 48.94 91.5359 50.5988 87.9553 54.1793C84.3748 57.7599 82.716 63.0088 82.716 69.64H84.216ZM103.416 50.44V51.94H120.056V50.44V48.94H103.416V50.44ZM120.056 50.44V51.94C126.225 51.94 130.576 53.4812 133.395 56.3007C136.215 59.1201 137.756 63.4712 137.756 69.64H139.256H140.756C140.756 63.0088 139.097 57.7599 135.517 54.1793C131.936 50.5988 126.687 48.94 120.056 48.94V50.44ZM139.256 69.64H137.756V87.688H139.256H140.756V69.64H139.256ZM139.256 87.688V86.188H94.456V87.688V89.188H139.256V87.688ZM94.456 87.688H92.956V99.08H94.456H95.956V87.688H94.456ZM94.456 99.08H92.956C92.956 102.298 93.7615 104.987 95.6353 106.861C97.5092 108.735 100.198 109.54 103.416 109.54V108.04V106.54C100.661 106.54 98.8695 105.852 97.7567 104.739C96.6438 103.627 95.956 101.835 95.956 99.08H94.456ZM103.416 108.04V109.54H136.696V108.04V106.54H103.416V108.04ZM136.696 108.04H135.196V113.16H136.696H138.196V108.04H136.696ZM136.696 113.16L135.796 111.96L130.676 115.8L131.576 117L132.476 118.2L137.596 114.36L136.696 113.16ZM131.576 117V115.5H103.416V117V118.5H131.576V117ZM103.416 117V115.5C97.2472 115.5 92.8961 113.959 90.0767 111.139C87.2572 108.32 85.716 103.969 85.716 97.8H84.216H82.716C82.716 104.431 84.3748 109.68 87.9553 113.261C91.5359 116.841 96.7848 118.5 103.416 118.5V117ZM94.456 79.368V80.868H129.016V79.368V77.868H94.456V79.368ZM129.016 79.368H130.516V68.36H129.016H127.516V79.368H129.016ZM129.016 68.36H130.516C130.516 65.1421 129.711 62.4532 127.837 60.5793C125.963 58.7055 123.274 57.9 120.056 57.9V59.4V60.9C122.811 60.9 124.603 61.5878 125.715 62.7007C126.828 63.8135 127.516 65.6045 127.516 68.36H129.016ZM120.056 59.4V57.9H103.416V59.4V60.9H120.056V59.4ZM103.416 59.4V57.9C100.198 57.9 97.5092 58.7055 95.6353 60.5793C93.7615 62.4532 92.956 65.1421 92.956 68.36H94.456H95.956C95.956 65.6045 96.6438 63.8135 97.7567 62.7007C98.8695 61.5878 100.661 60.9 103.416 60.9V59.4ZM94.456 68.36H92.956V79.368H94.456H95.956V68.36H94.456Z" fill="url(#paint3_linear_64_167)" mask="url(#path-3-outside-1_64_167)"/>
<mask id="path-5-outside-2_64_167" maskUnits="userSpaceOnUse" x="8" y="48" width="133" height="71" fill="black">
<rect fill="white" x="8" y="48" width="133" height="71"/>
<path d="M10.24 117V50.44H46.08C58.88 50.44 65.28 56.84 65.28 69.64V117H55.04V68.36C55.04 62.3867 52.0533 59.4 46.08 59.4H20.48V117H10.24ZM84.216 97.8V69.64C84.216 56.84 90.616 50.44 103.416 50.44H120.056C132.856 50.44 139.256 56.84 139.256 69.64V87.688H94.456V99.08C94.456 105.053 97.4427 108.04 103.416 108.04H136.696V113.16L131.576 117H103.416C90.616 117 84.216 110.6 84.216 97.8ZM94.456 79.368H129.016V68.36C129.016 62.3867 126.029 59.4 120.056 59.4H103.416C97.4427 59.4 94.456 62.3867 94.456 68.36V79.368Z"/>
</mask>
<path d="M10.24 117V50.44H46.08C58.88 50.44 65.28 56.84 65.28 69.64V117H55.04V68.36C55.04 62.3867 52.0533 59.4 46.08 59.4H20.48V117H10.24ZM84.216 97.8V69.64C84.216 56.84 90.616 50.44 103.416 50.44H120.056C132.856 50.44 139.256 56.84 139.256 69.64V87.688H94.456V99.08C94.456 105.053 97.4427 108.04 103.416 108.04H136.696V113.16L131.576 117H103.416C90.616 117 84.216 110.6 84.216 97.8ZM94.456 79.368H129.016V68.36C129.016 62.3867 126.029 59.4 120.056 59.4H103.416C97.4427 59.4 94.456 62.3867 94.456 68.36V79.368Z" fill="url(#paint4_linear_64_167)"/>
<path d="M10.24 117H8.74V118.5H10.24V117ZM10.24 50.44V48.94H8.74V50.44H10.24ZM65.28 117V118.5H66.78V117H65.28ZM55.04 117H53.54V118.5H55.04V117ZM20.48 59.4V57.9H18.98V59.4H20.48ZM20.48 117V118.5H21.98V117H20.48ZM10.24 117H11.74V50.44H10.24H8.74V117H10.24ZM10.24 50.44V51.94H46.08V50.44V48.94H10.24V50.44ZM46.08 50.44V51.94C52.2488 51.94 56.5999 53.4812 59.4193 56.3007C62.2388 59.1201 63.78 63.4712 63.78 69.64H65.28H66.78C66.78 63.0088 65.1212 57.7599 61.5407 54.1793C57.9601 50.5988 52.7112 48.94 46.08 48.94V50.44ZM65.28 69.64H63.78V117H65.28H66.78V69.64H65.28ZM65.28 117V115.5H55.04V117V118.5H65.28V117ZM55.04 117H56.54V68.36H55.04H53.54V117H55.04ZM55.04 68.36H56.54C56.54 65.1421 55.7345 62.4532 53.8607 60.5793C51.9868 58.7055 49.2979 57.9 46.08 57.9V59.4V60.9C48.8354 60.9 50.6265 61.5878 51.7393 62.7007C52.8522 63.8135 53.54 65.6045 53.54 68.36H55.04ZM46.08 59.4V57.9H20.48V59.4V60.9H46.08V59.4ZM20.48 59.4H18.98V117H20.48H21.98V59.4H20.48ZM20.48 117V115.5H10.24V117V118.5H20.48V117ZM139.256 87.688V89.188H140.756V87.688H139.256ZM94.456 87.688V86.188H92.956V87.688H94.456ZM136.696 108.04H138.196V106.54H136.696V108.04ZM136.696 113.16L137.596 114.36L138.196 113.91V113.16H136.696ZM131.576 117V118.5H132.076L132.476 118.2L131.576 117ZM94.456 79.368H92.956V80.868H94.456V79.368ZM129.016 79.368V80.868H130.516V79.368H129.016ZM84.216 97.8H85.716V69.64H84.216H82.716V97.8H84.216ZM84.216 69.64H85.716C85.716 63.4712 87.2572 59.1201 90.0767 56.3007C92.8961 53.4812 97.2472 51.94 103.416 51.94V50.44V48.94C96.7848 48.94 91.5359 50.5988 87.9553 54.1793C84.3748 57.7599 82.716 63.0088 82.716 69.64H84.216ZM103.416 50.44V51.94H120.056V50.44V48.94H103.416V50.44ZM120.056 50.44V51.94C126.225 51.94 130.576 53.4812 133.395 56.3007C136.215 59.1201 137.756 63.4712 137.756 69.64H139.256H140.756C140.756 63.0088 139.097 57.7599 135.517 54.1793C131.936 50.5988 126.687 48.94 120.056 48.94V50.44ZM139.256 69.64H137.756V87.688H139.256H140.756V69.64H139.256ZM139.256 87.688V86.188H94.456V87.688V89.188H139.256V87.688ZM94.456 87.688H92.956V99.08H94.456H95.956V87.688H94.456ZM94.456 99.08H92.956C92.956 102.298 93.7615 104.987 95.6353 106.861C97.5092 108.735 100.198 109.54 103.416 109.54V108.04V106.54C100.661 106.54 98.8695 105.852 97.7567 104.739C96.6438 103.627 95.956 101.835 95.956 99.08H94.456ZM103.416 108.04V109.54H136.696V108.04V106.54H103.416V108.04ZM136.696 108.04H135.196V113.16H136.696H138.196V108.04H136.696ZM136.696 113.16L135.796 111.96L130.676 115.8L131.576 117L132.476 118.2L137.596 114.36L136.696 113.16ZM131.576 117V115.5H103.416V117V118.5H131.576V117ZM103.416 117V115.5C97.2472 115.5 92.8961 113.959 90.0767 111.139C87.2572 108.32 85.716 103.969 85.716 97.8H84.216H82.716C82.716 104.431 84.3748 109.68 87.9553 113.261C91.5359 116.841 96.7848 118.5 103.416 118.5V117ZM94.456 79.368V80.868H129.016V79.368V77.868H94.456V79.368ZM129.016 79.368H130.516V68.36H129.016H127.516V79.368H129.016ZM129.016 68.36H130.516C130.516 65.1421 129.711 62.4532 127.837 60.5793C125.963 58.7055 123.274 57.9 120.056 57.9V59.4V60.9C122.811 60.9 124.603 61.5878 125.715 62.7007C126.828 63.8135 127.516 65.6045 127.516 68.36H129.016ZM120.056 59.4V57.9H103.416V59.4V60.9H120.056V59.4ZM103.416 59.4V57.9C100.198 57.9 97.5092 58.7055 95.6353 60.5793C93.7615 62.4532 92.956 65.1421 92.956 68.36H94.456H95.956C95.956 65.6045 96.6438 63.8135 97.7567 62.7007C98.8695 61.5878 100.661 60.9 103.416 60.9V59.4ZM94.456 68.36H92.956V79.368H94.456H95.956V68.36H94.456Z" fill="url(#paint5_linear_64_167)" mask="url(#path-5-outside-2_64_167)"/>
<mask id="path-7-outside-3_64_167" maskUnits="userSpaceOnUse" x="8" y="48" width="133" height="71" fill="black">
<rect fill="white" x="8" y="48" width="133" height="71"/>
<path d="M10.24 117V50.44H46.08C58.88 50.44 65.28 56.84 65.28 69.64V117H55.04V68.36C55.04 62.3867 52.0533 59.4 46.08 59.4H20.48V117H10.24ZM84.216 97.8V69.64C84.216 56.84 90.616 50.44 103.416 50.44H120.056C132.856 50.44 139.256 56.84 139.256 69.64V87.688H94.456V99.08C94.456 105.053 97.4427 108.04 103.416 108.04H136.696V113.16L131.576 117H103.416C90.616 117 84.216 110.6 84.216 97.8ZM94.456 79.368H129.016V68.36C129.016 62.3867 126.029 59.4 120.056 59.4H103.416C97.4427 59.4 94.456 62.3867 94.456 68.36V79.368Z"/>
</mask>
<path d="M10.24 117V50.44H46.08C58.88 50.44 65.28 56.84 65.28 69.64V117H55.04V68.36C55.04 62.3867 52.0533 59.4 46.08 59.4H20.48V117H10.24ZM84.216 97.8V69.64C84.216 56.84 90.616 50.44 103.416 50.44H120.056C132.856 50.44 139.256 56.84 139.256 69.64V87.688H94.456V99.08C94.456 105.053 97.4427 108.04 103.416 108.04H136.696V113.16L131.576 117H103.416C90.616 117 84.216 110.6 84.216 97.8ZM94.456 79.368H129.016V68.36C129.016 62.3867 126.029 59.4 120.056 59.4H103.416C97.4427 59.4 94.456 62.3867 94.456 68.36V79.368Z" fill="url(#paint6_linear_64_167)"/>
<path d="M10.24 117H8.74V118.5H10.24V117ZM10.24 50.44V48.94H8.74V50.44H10.24ZM65.28 117V118.5H66.78V117H65.28ZM55.04 117H53.54V118.5H55.04V117ZM20.48 59.4V57.9H18.98V59.4H20.48ZM20.48 117V118.5H21.98V117H20.48ZM10.24 117H11.74V50.44H10.24H8.74V117H10.24ZM10.24 50.44V51.94H46.08V50.44V48.94H10.24V50.44ZM46.08 50.44V51.94C52.2488 51.94 56.5999 53.4812 59.4193 56.3007C62.2388 59.1201 63.78 63.4712 63.78 69.64H65.28H66.78C66.78 63.0088 65.1212 57.7599 61.5407 54.1793C57.9601 50.5988 52.7112 48.94 46.08 48.94V50.44ZM65.28 69.64H63.78V117H65.28H66.78V69.64H65.28ZM65.28 117V115.5H55.04V117V118.5H65.28V117ZM55.04 117H56.54V68.36H55.04H53.54V117H55.04ZM55.04 68.36H56.54C56.54 65.1421 55.7345 62.4532 53.8607 60.5793C51.9868 58.7055 49.2979 57.9 46.08 57.9V59.4V60.9C48.8354 60.9 50.6265 61.5878 51.7393 62.7007C52.8522 63.8135 53.54 65.6045 53.54 68.36H55.04ZM46.08 59.4V57.9H20.48V59.4V60.9H46.08V59.4ZM20.48 59.4H18.98V117H20.48H21.98V59.4H20.48ZM20.48 117V115.5H10.24V117V118.5H20.48V117ZM139.256 87.688V89.188H140.756V87.688H139.256ZM94.456 87.688V86.188H92.956V87.688H94.456ZM136.696 108.04H138.196V106.54H136.696V108.04ZM136.696 113.16L137.596 114.36L138.196 113.91V113.16H136.696ZM131.576 117V118.5H132.076L132.476 118.2L131.576 117ZM94.456 79.368H92.956V80.868H94.456V79.368ZM129.016 79.368V80.868H130.516V79.368H129.016ZM84.216 97.8H85.716V69.64H84.216H82.716V97.8H84.216ZM84.216 69.64H85.716C85.716 63.4712 87.2572 59.1201 90.0767 56.3007C92.8961 53.4812 97.2472 51.94 103.416 51.94V50.44V48.94C96.7848 48.94 91.5359 50.5988 87.9553 54.1793C84.3748 57.7599 82.716 63.0088 82.716 69.64H84.216ZM103.416 50.44V51.94H120.056V50.44V48.94H103.416V50.44ZM120.056 50.44V51.94C126.225 51.94 130.576 53.4812 133.395 56.3007C136.215 59.1201 137.756 63.4712 137.756 69.64H139.256H140.756C140.756 63.0088 139.097 57.7599 135.517 54.1793C131.936 50.5988 126.687 48.94 120.056 48.94V50.44ZM139.256 69.64H137.756V87.688H139.256H140.756V69.64H139.256ZM139.256 87.688V86.188H94.456V87.688V89.188H139.256V87.688ZM94.456 87.688H92.956V99.08H94.456H95.956V87.688H94.456ZM94.456 99.08H92.956C92.956 102.298 93.7615 104.987 95.6353 106.861C97.5092 108.735 100.198 109.54 103.416 109.54V108.04V106.54C100.661 106.54 98.8695 105.852 97.7567 104.739C96.6438 103.627 95.956 101.835 95.956 99.08H94.456ZM103.416 108.04V109.54H136.696V108.04V106.54H103.416V108.04ZM136.696 108.04H135.196V113.16H136.696H138.196V108.04H136.696ZM136.696 113.16L135.796 111.96L130.676 115.8L131.576 117L132.476 118.2L137.596 114.36L136.696 113.16ZM131.576 117V115.5H103.416V117V118.5H131.576V117ZM103.416 117V115.5C97.2472 115.5 92.8961 113.959 90.0767 111.139C87.2572 108.32 85.716 103.969 85.716 97.8H84.216H82.716C82.716 104.431 84.3748 109.68 87.9553 113.261C91.5359 116.841 96.7848 118.5 103.416 118.5V117ZM94.456 79.368V80.868H129.016V79.368V77.868H94.456V79.368ZM129.016 79.368H130.516V68.36H129.016H127.516V79.368H129.016ZM129.016 68.36H130.516C130.516 65.1421 129.711 62.4532 127.837 60.5793C125.963 58.7055 123.274 57.9 120.056 57.9V59.4V60.9C122.811 60.9 124.603 61.5878 125.715 62.7007C126.828 63.8135 127.516 65.6045 127.516 68.36H129.016ZM120.056 59.4V57.9H103.416V59.4V60.9H120.056V59.4ZM103.416 59.4V57.9C100.198 57.9 97.5092 58.7055 95.6353 60.5793C93.7615 62.4532 92.956 65.1421 92.956 68.36H94.456H95.956C95.956 65.6045 96.6438 63.8135 97.7567 62.7007C98.8695 61.5878 100.661 60.9 103.416 60.9V59.4ZM94.456 68.36H92.956V79.368H94.456H95.956V68.36H94.456Z" fill="url(#paint7_linear_64_167)" mask="url(#path-7-outside-3_64_167)"/>
<mask id="path-9-outside-4_64_167" maskUnits="userSpaceOnUse" x="6" y="46" width="138" height="75" fill="black">
<rect fill="white" x="6" y="46" width="138" height="75"/>
<path d="M10.24 117V50.44H46.08C58.88 50.44 65.28 56.84 65.28 69.64V117H55.04V68.36C55.04 62.3867 52.0533 59.4 46.08 59.4H20.48V117H10.24ZM84.216 97.8V69.64C84.216 56.84 90.616 50.44 103.416 50.44H120.056C132.856 50.44 139.256 56.84 139.256 69.64V87.688H94.456V99.08C94.456 105.053 97.4427 108.04 103.416 108.04H136.696V113.16L131.576 117H103.416C90.616 117 84.216 110.6 84.216 97.8ZM94.456 79.368H129.016V68.36C129.016 62.3867 126.029 59.4 120.056 59.4H103.416C97.4427 59.4 94.456 62.3867 94.456 68.36V79.368Z"/>
</mask>
<path d="M10.24 117V50.44H46.08C58.88 50.44 65.28 56.84 65.28 69.64V117H55.04V68.36C55.04 62.3867 52.0533 59.4 46.08 59.4H20.48V117H10.24ZM84.216 97.8V69.64C84.216 56.84 90.616 50.44 103.416 50.44H120.056C132.856 50.44 139.256 56.84 139.256 69.64V87.688H94.456V99.08C94.456 105.053 97.4427 108.04 103.416 108.04H136.696V113.16L131.576 117H103.416C90.616 117 84.216 110.6 84.216 97.8ZM94.456 79.368H129.016V68.36C129.016 62.3867 126.029 59.4 120.056 59.4H103.416C97.4427 59.4 94.456 62.3867 94.456 68.36V79.368Z" fill="black"/>
<path d="M10.24 117H6.24V121H10.24V117ZM10.24 50.44V46.44H6.24V50.44H10.24ZM65.28 117V121H69.28V117H65.28ZM55.04 117H51.04V121H55.04V117ZM20.48 59.4V55.4H16.48V59.4H20.48ZM20.48 117V121H24.48V117H20.48ZM10.24 117H14.24V50.44H10.24H6.24V117H10.24ZM10.24 50.44V54.44H46.08V50.44V46.44H10.24V50.44ZM46.08 50.44V54.44C51.8634 54.44 55.4663 55.8831 57.6516 58.0684C59.8369 60.2537 61.28 63.8566 61.28 69.64H65.28H69.28C69.28 62.6234 67.5232 56.6263 63.3084 52.4116C59.0937 48.1968 53.0966 46.44 46.08 46.44V50.44ZM65.28 69.64H61.28V117H65.28H69.28V69.64H65.28ZM65.28 117V113H55.04V117V121H65.28V117ZM55.04 117H59.04V68.36H55.04H51.04V117H55.04ZM55.04 68.36H59.04C59.04 64.7568 58.1365 61.3196 55.6284 58.8116C53.1204 56.3035 49.6832 55.4 46.08 55.4V59.4V63.4C48.4501 63.4 49.493 63.9898 49.9716 64.4684C50.4502 64.947 51.04 65.9899 51.04 68.36H55.04ZM46.08 59.4V55.4H20.48V59.4V63.4H46.08V59.4ZM20.48 59.4H16.48V117H20.48H24.48V59.4H20.48ZM20.48 117V113H10.24V117V121H20.48V117ZM139.256 87.688V91.688H143.256V87.688H139.256ZM94.456 87.688V83.688H90.456V87.688H94.456ZM136.696 108.04H140.696V104.04H136.696V108.04ZM136.696 113.16L139.096 116.36L140.696 115.16V113.16H136.696ZM131.576 117V121H132.909L133.976 120.2L131.576 117ZM94.456 79.368H90.456V83.368H94.456V79.368ZM129.016 79.368V83.368H133.016V79.368H129.016ZM84.216 97.8H88.216V69.64H84.216H80.216V97.8H84.216ZM84.216 69.64H88.216C88.216 63.8566 89.6591 60.2537 91.8444 58.0684C94.0297 55.8831 97.6326 54.44 103.416 54.44V50.44V46.44C96.3994 46.44 90.4023 48.1968 86.1876 52.4116C81.9729 56.6263 80.216 62.6234 80.216 69.64H84.216ZM103.416 50.44V54.44H120.056V50.44V46.44H103.416V50.44ZM120.056 50.44V54.44C125.839 54.44 129.442 55.8831 131.628 58.0684C133.813 60.2537 135.256 63.8566 135.256 69.64H139.256H143.256C143.256 62.6234 141.499 56.6263 137.284 52.4116C133.07 48.1968 127.073 46.44 120.056 46.44V50.44ZM139.256 69.64H135.256V87.688H139.256H143.256V69.64H139.256ZM139.256 87.688V83.688H94.456V87.688V91.688H139.256V87.688ZM94.456 87.688H90.456V99.08H94.456H98.456V87.688H94.456ZM94.456 99.08H90.456C90.456 102.683 91.3595 106.12 93.8676 108.628C96.3756 111.136 99.8128 112.04 103.416 112.04V108.04V104.04C101.046 104.04 100.003 103.45 99.5244 102.972C99.0458 102.493 98.456 101.45 98.456 99.08H94.456ZM103.416 108.04V112.04H136.696V108.04V104.04H103.416V108.04ZM136.696 108.04H132.696V113.16H136.696H140.696V108.04H136.696ZM136.696 113.16L134.296 109.96L129.176 113.8L131.576 117L133.976 120.2L139.096 116.36L136.696 113.16ZM131.576 117V113H103.416V117V121H131.576V117ZM103.416 117V113C97.6326 113 94.0297 111.557 91.8444 109.372C89.6591 107.186 88.216 103.583 88.216 97.8H84.216H80.216C80.216 104.817 81.9729 110.814 86.1876 115.028C90.4023 119.243 96.3994 121 103.416 121V117ZM94.456 79.368V83.368H129.016V79.368V75.368H94.456V79.368ZM129.016 79.368H133.016V68.36H129.016H125.016V79.368H129.016ZM129.016 68.36H133.016C133.016 64.7568 132.112 61.3196 129.604 58.8116C127.096 56.3035 123.659 55.4 120.056 55.4V59.4V63.4C122.426 63.4 123.469 63.9898 123.948 64.4684C124.426 64.947 125.016 65.9899 125.016 68.36H129.016ZM120.056 59.4V55.4H103.416V59.4V63.4H120.056V59.4ZM103.416 59.4V55.4C99.8128 55.4 96.3756 56.3035 93.8676 58.8116C91.3595 61.3196 90.456 64.7568 90.456 68.36H94.456H98.456C98.456 65.9899 99.0458 64.947 99.5244 64.4684C100.003 63.9898 101.046 63.4 103.416 63.4V59.4ZM94.456 68.36H90.456V79.368H94.456H98.456V68.36H94.456Z" fill="white" mask="url(#path-9-outside-4_64_167)"/>
<mask id="path-11-outside-5_64_167" maskUnits="userSpaceOnUse" x="235" y="48" width="135" height="71" fill="black">
<rect fill="white" x="235" y="48" width="135" height="71"/>
<path d="M237.216 97.8V69.64C237.216 56.84 243.616 50.44 256.416 50.44H274.336C287.136 50.44 293.536 56.84 293.536 69.64V97.8C293.536 110.6 287.136 117 274.336 117H256.416C243.616 117 237.216 110.6 237.216 97.8ZM247.456 99.08C247.456 105.053 250.443 108.04 256.416 108.04H274.336C280.309 108.04 283.296 105.053 283.296 99.08V68.36C283.296 62.3867 280.309 59.4 274.336 59.4H256.416C250.443 59.4 247.456 62.3867 247.456 68.36V99.08ZM312.99 117V50.44H348.83C361.63 50.44 368.03 56.84 368.03 69.64V117H357.79V68.36C357.79 62.3867 354.803 59.4 348.83 59.4H323.23V117H312.99Z"/>
</mask>
<path d="M237.216 97.8V69.64C237.216 56.84 243.616 50.44 256.416 50.44H274.336C287.136 50.44 293.536 56.84 293.536 69.64V97.8C293.536 110.6 287.136 117 274.336 117H256.416C243.616 117 237.216 110.6 237.216 97.8ZM247.456 99.08C247.456 105.053 250.443 108.04 256.416 108.04H274.336C280.309 108.04 283.296 105.053 283.296 99.08V68.36C283.296 62.3867 280.309 59.4 274.336 59.4H256.416C250.443 59.4 247.456 62.3867 247.456 68.36V99.08ZM312.99 117V50.44H348.83C361.63 50.44 368.03 56.84 368.03 69.64V117H357.79V68.36C357.79 62.3867 354.803 59.4 348.83 59.4H323.23V117H312.99Z" fill="url(#paint8_linear_64_167)"/>
<path d="M237.216 97.8H238.716V69.64H237.216H235.716V97.8H237.216ZM237.216 69.64H238.716C238.716 63.4712 240.257 59.1201 243.077 56.3007C245.896 53.4812 250.247 51.94 256.416 51.94V50.44V48.94C249.785 48.94 244.536 50.5988 240.955 54.1793C237.375 57.7599 235.716 63.0088 235.716 69.64H237.216ZM256.416 50.44V51.94H274.336V50.44V48.94H256.416V50.44ZM274.336 50.44V51.94C280.505 51.94 284.856 53.4812 287.675 56.3007C290.495 59.1201 292.036 63.4712 292.036 69.64H293.536H295.036C295.036 63.0088 293.377 57.7599 289.797 54.1793C286.216 50.5988 280.967 48.94 274.336 48.94V50.44ZM293.536 69.64H292.036V97.8H293.536H295.036V69.64H293.536ZM293.536 97.8H292.036C292.036 103.969 290.495 108.32 287.675 111.139C284.856 113.959 280.505 115.5 274.336 115.5V117V118.5C280.967 118.5 286.216 116.841 289.797 113.261C293.377 109.68 295.036 104.431 295.036 97.8H293.536ZM274.336 117V115.5H256.416V117V118.5H274.336V117ZM256.416 117V115.5C250.247 115.5 245.896 113.959 243.077 111.139C240.257 108.32 238.716 103.969 238.716 97.8H237.216H235.716C235.716 104.431 237.375 109.68 240.955 113.261C244.536 116.841 249.785 118.5 256.416 118.5V117ZM247.456 99.08H245.956C245.956 102.298 246.761 104.987 248.635 106.861C250.509 108.735 253.198 109.54 256.416 109.54V108.04V106.54C253.661 106.54 251.869 105.852 250.757 104.739C249.644 103.627 248.956 101.835 248.956 99.08H247.456ZM256.416 108.04V109.54H274.336V108.04V106.54H256.416V108.04ZM274.336 108.04V109.54C277.554 109.54 280.243 108.735 282.117 106.861C283.991 104.987 284.796 102.298 284.796 99.08H283.296H281.796C281.796 101.835 281.108 103.627 279.995 104.739C278.883 105.852 277.091 106.54 274.336 106.54V108.04ZM283.296 99.08H284.796V68.36H283.296H281.796V99.08H283.296ZM283.296 68.36H284.796C284.796 65.1421 283.991 62.4532 282.117 60.5793C280.243 58.7055 277.554 57.9 274.336 57.9V59.4V60.9C277.091 60.9 278.883 61.5878 279.995 62.7007C281.108 63.8135 281.796 65.6045 281.796 68.36H283.296ZM274.336 59.4V57.9H256.416V59.4V60.9H274.336V59.4ZM256.416 59.4V57.9C253.198 57.9 250.509 58.7055 248.635 60.5793C246.761 62.4532 245.956 65.1421 245.956 68.36H247.456H248.956C248.956 65.6045 249.644 63.8135 250.757 62.7007C251.869 61.5878 253.661 60.9 256.416 60.9V59.4ZM247.456 68.36H245.956V99.08H247.456H248.956V68.36H247.456ZM312.99 117H311.49V118.5H312.99V117ZM312.99 50.44V48.94H311.49V50.44H312.99ZM368.03 117V118.5H369.53V117H368.03ZM357.79 117H356.29V118.5H357.79V117ZM323.23 59.4V57.9H321.73V59.4H323.23ZM323.23 117V118.5H324.73V117H323.23ZM312.99 117H314.49V50.44H312.99H311.49V117H312.99ZM312.99 50.44V51.94H348.83V50.44V48.94H312.99V50.44ZM348.83 50.44V51.94C354.999 51.94 359.35 53.4812 362.169 56.3007C364.989 59.1201 366.53 63.4712 366.53 69.64H368.03H369.53C369.53 63.0088 367.871 57.7599 364.291 54.1793C360.71 50.5988 355.461 48.94 348.83 48.94V50.44ZM368.03 69.64H366.53V117H368.03H369.53V69.64H368.03ZM368.03 117V115.5H357.79V117V118.5H368.03V117ZM357.79 117H359.29V68.36H357.79H356.29V117H357.79ZM357.79 68.36H359.29C359.29 65.1421 358.485 62.4532 356.611 60.5793C354.737 58.7055 352.048 57.9 348.83 57.9V59.4V60.9C351.585 60.9 353.377 61.5878 354.489 62.7007C355.602 63.8135 356.29 65.6045 356.29 68.36H357.79ZM348.83 59.4V57.9H323.23V59.4V60.9H348.83V59.4ZM323.23 59.4H321.73V117H323.23H324.73V59.4H323.23ZM323.23 117V115.5H312.99V117V118.5H323.23V117Z" fill="url(#paint9_linear_64_167)" mask="url(#path-11-outside-5_64_167)"/>
<mask id="path-13-outside-6_64_167" maskUnits="userSpaceOnUse" x="233" y="46" width="140" height="75" fill="black">
<rect fill="white" x="233" y="46" width="140" height="75"/>
<path d="M237.216 97.8V69.64C237.216 56.84 243.616 50.44 256.416 50.44H274.336C287.136 50.44 293.536 56.84 293.536 69.64V97.8C293.536 110.6 287.136 117 274.336 117H256.416C243.616 117 237.216 110.6 237.216 97.8ZM247.456 99.08C247.456 105.053 250.443 108.04 256.416 108.04H274.336C280.309 108.04 283.296 105.053 283.296 99.08V68.36C283.296 62.3867 280.309 59.4 274.336 59.4H256.416C250.443 59.4 247.456 62.3867 247.456 68.36V99.08ZM312.99 117V50.44H348.83C361.63 50.44 368.03 56.84 368.03 69.64V117H357.79V68.36C357.79 62.3867 354.803 59.4 348.83 59.4H323.23V117H312.99Z"/>
</mask>
<path d="M237.216 97.8V69.64C237.216 56.84 243.616 50.44 256.416 50.44H274.336C287.136 50.44 293.536 56.84 293.536 69.64V97.8C293.536 110.6 287.136 117 274.336 117H256.416C243.616 117 237.216 110.6 237.216 97.8ZM247.456 99.08C247.456 105.053 250.443 108.04 256.416 108.04H274.336C280.309 108.04 283.296 105.053 283.296 99.08V68.36C283.296 62.3867 280.309 59.4 274.336 59.4H256.416C250.443 59.4 247.456 62.3867 247.456 68.36V99.08ZM312.99 117V50.44H348.83C361.63 50.44 368.03 56.84 368.03 69.64V117H357.79V68.36C357.79 62.3867 354.803 59.4 348.83 59.4H323.23V117H312.99Z" fill="black"/>
<path d="M237.216 97.8H241.216V69.64H237.216H233.216V97.8H237.216ZM237.216 69.64H241.216C241.216 63.8566 242.659 60.2537 244.844 58.0684C247.03 55.8831 250.633 54.44 256.416 54.44V50.44V46.44C249.399 46.44 243.402 48.1968 239.188 52.4116C234.973 56.6263 233.216 62.6234 233.216 69.64H237.216ZM256.416 50.44V54.44H274.336V50.44V46.44H256.416V50.44ZM274.336 50.44V54.44C280.119 54.44 283.722 55.8831 285.908 58.0684C288.093 60.2537 289.536 63.8566 289.536 69.64H293.536H297.536C297.536 62.6234 295.779 56.6263 291.564 52.4116C287.35 48.1968 281.353 46.44 274.336 46.44V50.44ZM293.536 69.64H289.536V97.8H293.536H297.536V69.64H293.536ZM293.536 97.8H289.536C289.536 103.583 288.093 107.186 285.908 109.372C283.722 111.557 280.119 113 274.336 113V117V121C281.353 121 287.35 119.243 291.564 115.028C295.779 110.814 297.536 104.817 297.536 97.8H293.536ZM274.336 117V113H256.416V117V121H274.336V117ZM256.416 117V113C250.633 113 247.03 111.557 244.844 109.372C242.659 107.186 241.216 103.583 241.216 97.8H237.216H233.216C233.216 104.817 234.973 110.814 239.188 115.028C243.402 119.243 249.399 121 256.416 121V117ZM247.456 99.08H243.456C243.456 102.683 244.36 106.12 246.868 108.628C249.376 111.136 252.813 112.04 256.416 112.04V108.04V104.04C254.046 104.04 253.003 103.45 252.524 102.972C252.046 102.493 251.456 101.45 251.456 99.08H247.456ZM256.416 108.04V112.04H274.336V108.04V104.04H256.416V108.04ZM274.336 108.04V112.04C277.939 112.04 281.376 111.136 283.884 108.628C286.392 106.12 287.296 102.683 287.296 99.08H283.296H279.296C279.296 101.45 278.706 102.493 278.228 102.972C277.749 103.45 276.706 104.04 274.336 104.04V108.04ZM283.296 99.08H287.296V68.36H283.296H279.296V99.08H283.296ZM283.296 68.36H287.296C287.296 64.7568 286.392 61.3196 283.884 58.8116C281.376 56.3035 277.939 55.4 274.336 55.4V59.4V63.4C276.706 63.4 277.749 63.9898 278.228 64.4684C278.706 64.947 279.296 65.9899 279.296 68.36H283.296ZM274.336 59.4V55.4H256.416V59.4V63.4H274.336V59.4ZM256.416 59.4V55.4C252.813 55.4 249.376 56.3035 246.868 58.8116C244.36 61.3196 243.456 64.7568 243.456 68.36H247.456H251.456C251.456 65.9899 252.046 64.947 252.524 64.4684C253.003 63.9898 254.046 63.4 256.416 63.4V59.4ZM247.456 68.36H243.456V99.08H247.456H251.456V68.36H247.456ZM312.99 117H308.99V121H312.99V117ZM312.99 50.44V46.44H308.99V50.44H312.99ZM368.03 117V121H372.03V117H368.03ZM357.79 117H353.79V121H357.79V117ZM323.23 59.4V55.4H319.23V59.4H323.23ZM323.23 117V121H327.23V117H323.23ZM312.99 117H316.99V50.44H312.99H308.99V117H312.99ZM312.99 50.44V54.44H348.83V50.44V46.44H312.99V50.44ZM348.83 50.44V54.44C354.613 54.44 358.216 55.8831 360.402 58.0684C362.587 60.2537 364.03 63.8566 364.03 69.64H368.03H372.03C372.03 62.6234 370.273 56.6263 366.058 52.4116C361.844 48.1968 355.847 46.44 348.83 46.44V50.44ZM368.03 69.64H364.03V117H368.03H372.03V69.64H368.03ZM368.03 117V113H357.79V117V121H368.03V117ZM357.79 117H361.79V68.36H357.79H353.79V117H357.79ZM357.79 68.36H361.79C361.79 64.7568 360.886 61.3196 358.378 58.8116C355.87 56.3035 352.433 55.4 348.83 55.4V59.4V63.4C351.2 63.4 352.243 63.9898 352.722 64.4684C353.2 64.947 353.79 65.9899 353.79 68.36H357.79ZM348.83 59.4V55.4H323.23V59.4V63.4H348.83V59.4ZM323.23 59.4H319.23V117H323.23H327.23V59.4H323.23ZM323.23 117V113H312.99V117V121H323.23V117Z" fill="white" mask="url(#path-13-outside-6_64_167)"/>
<path d="M480.607 36H455L496.475 123H521L480.607 36Z" fill="url(#paint10_linear_64_167)"/>
<path d="M458.025 87H479.342L486.5 102H452L458.025 87Z" fill="url(#paint11_linear_64_167)"/>
<path d="M453.5 37.5L466 63.5L438.525 124H414L453.5 37.5Z" fill="url(#paint12_linear_64_167)"/>
<rect x="527" y="36" width="21" height="87" fill="url(#paint13_linear_64_167)"/>
<path d="M249.359 26L156.532 137H125.177L220.46 26H249.359Z" fill="url(#paint14_linear_64_167)" stroke="url(#paint15_linear_64_167)" stroke-width="2"/>
<path d="M220 25H251.5L157 138H123L220 25Z" fill="url(#paint16_linear_64_167)"/>
<path d="M426.034 75.25L425.713 76.2334L421.138 90.2334L420.969 90.75H376.845L377.315 89.6943L383.554 75.6943L383.752 75.25H426.034Z" fill="url(#paint17_linear_64_167)" stroke="url(#paint18_linear_64_167)" stroke-width="1.5"/>
<path d="M384.239 76H425L420.425 90H378L384.239 76Z" fill="#262626" stroke="white" stroke-width="4"/>
<defs>
<linearGradient id="paint0_linear_64_167" x1="241.784" y1="83.1932" x2="175.743" y2="124.375" gradientUnits="userSpaceOnUse">
<stop stop-color="#A29C9C"/>
<stop offset="1"/>
</linearGradient>
<linearGradient id="paint1_linear_64_167" x1="175.284" y1="23.142" x2="108.224" y2="63.8089" gradientUnits="userSpaceOnUse">
<stop stop-color="#A29C9C"/>
<stop offset="1"/>
</linearGradient>
<linearGradient id="paint2_linear_64_167" x1="74" y1="58" x2="74" y2="117" gradientUnits="userSpaceOnUse">
<stop/>
<stop offset="0.418269" stop-color="#989898"/>
<stop offset="1" stop-color="#2E2E2E"/>
</linearGradient>
<linearGradient id="paint3_linear_64_167" x1="74" y1="50" x2="74" y2="117" gradientUnits="userSpaceOnUse">
<stop stop-color="white"/>
<stop offset="1" stop-color="#262424"/>
</linearGradient>
<linearGradient id="paint4_linear_64_167" x1="74" y1="58" x2="74" y2="117" gradientUnits="userSpaceOnUse">
<stop/>
<stop offset="0.418269" stop-color="#989898"/>
<stop offset="1" stop-color="#2E2E2E"/>
</linearGradient>
<linearGradient id="paint5_linear_64_167" x1="74" y1="50" x2="74" y2="117" gradientUnits="userSpaceOnUse">
<stop stop-color="white"/>
<stop offset="1" stop-color="#262424"/>
</linearGradient>
<linearGradient id="paint6_linear_64_167" x1="74" y1="58" x2="74" y2="117" gradientUnits="userSpaceOnUse">
<stop/>
<stop offset="0.418269" stop-color="#989898"/>
<stop offset="1" stop-color="#2E2E2E"/>
</linearGradient>
<linearGradient id="paint7_linear_64_167" x1="74" y1="50" x2="74" y2="117" gradientUnits="userSpaceOnUse">
<stop stop-color="white"/>
<stop offset="1" stop-color="#262424"/>
</linearGradient>
<linearGradient id="paint8_linear_64_167" x1="302.497" y1="58" x2="302.497" y2="117" gradientUnits="userSpaceOnUse">
<stop stop-color="#E7E7E7"/>
<stop offset="0.418269" stop-color="#989898"/>
<stop offset="1" stop-color="#2E2E2E"/>
</linearGradient>
<linearGradient id="paint9_linear_64_167" x1="302.497" y1="50" x2="302.497" y2="117" gradientUnits="userSpaceOnUse">
<stop stop-color="white"/>
<stop offset="1" stop-color="#262424"/>
</linearGradient>
<linearGradient id="paint10_linear_64_167" x1="510.657" y1="33.0341" x2="426.741" y2="66.9692" gradientUnits="userSpaceOnUse">
<stop stop-color="white"/>
<stop offset="1" stop-color="#999999"/>
</linearGradient>
<linearGradient id="paint11_linear_64_167" x1="457.407" y1="86.4886" x2="477.796" y2="111.487" gradientUnits="userSpaceOnUse">
<stop stop-color="white"/>
<stop offset="1" stop-color="#999999"/>
</linearGradient>
<linearGradient id="paint12_linear_64_167" x1="422.149" y1="34.5511" x2="491.913" y2="56.9073" gradientUnits="userSpaceOnUse">
<stop stop-color="white"/>
<stop offset="1" stop-color="#999999"/>
</linearGradient>
<linearGradient id="paint13_linear_64_167" x1="530.291" y1="33.0341" x2="560.852" y2="36.9664" gradientUnits="userSpaceOnUse">
<stop stop-color="white"/>
<stop offset="1" stop-color="#999999"/>
</linearGradient>
<linearGradient id="paint14_linear_64_167" x1="187.25" y1="25" x2="187.25" y2="138" gradientUnits="userSpaceOnUse">
<stop stop-color="#A97000"/>
<stop offset="0.5625" stop-color="#D0C900"/>
<stop offset="1" stop-color="#737373"/>
</linearGradient>
<linearGradient id="paint15_linear_64_167" x1="187.25" y1="25" x2="187.25" y2="138" gradientUnits="userSpaceOnUse">
<stop/>
<stop offset="1" stop-color="#666666"/>
</linearGradient>
<linearGradient id="paint16_linear_64_167" x1="143.138" y1="21.1477" x2="282.155" y2="105.418" gradientUnits="userSpaceOnUse">
<stop stop-color="white"/>
<stop offset="1" stop-color="#999999"/>
</linearGradient>
<linearGradient id="paint17_linear_64_167" x1="402.404" y1="67.8333" x2="401.734" y2="98.5607" gradientUnits="userSpaceOnUse">
<stop stop-color="#E7E7E7"/>
<stop offset="0.418269" stop-color="#989898"/>
<stop offset="1" stop-color="#2E2E2E"/>
</linearGradient>
<linearGradient id="paint18_linear_64_167" x1="401.5" y1="53.8333" x2="401.5" y2="104" gradientUnits="userSpaceOnUse">
<stop stop-color="white"/>
<stop offset="1" stop-color="#262424"/>
</linearGradient>
</defs>
</svg>
